<svg xmlns="http://www.w3.org/2000/svg" width="363" height="286" fill="none" viewBox="0 0 363 286"><path fill="#007BFF" d="M162.788 204.197a80.995 80.995 0 0 0-10.547-39.99 81.27 81.27 0 0 0-28.934-29.618 81.584 81.584 0 0 0-80.168-2.066 81.309 81.309 0 0 0-30.428 28.09A81.01 81.01 0 0 0 .107 200.006 80.981 80.981 0 0 0 8.6 240.48a81.244 81.244 0 0 0 27.384 31.049l.05.361a27.865 27.865 0 0 0 9.23 5.855l.107-.361c3.812 3.284 19.86 8.482 38.297 8.433h.403c11.676 0 24.357-2.053 35.506-8.072 0 0 .099-.213.247-.616a28.992 28.992 0 0 0 7.674-5.239l.132-.919a81.157 81.157 0 0 0 25.839-29.062 80.885 80.885 0 0 0 9.32-37.712Z" opacity=".5"/><path fill="#007BFF" d="M81.386 282.943c43.606 0 78.957-35.252 78.957-78.738 0-43.485-35.351-78.737-78.957-78.737-43.607 0-78.957 35.252-78.957 78.737 0 43.486 35.35 78.738 78.957 78.738Z"/><path fill="#333" d="M82.243 213.041c19.331 0 35.003-15.628 35.003-34.906s-15.672-34.906-35.003-34.906c-19.332 0-35.004 15.628-35.004 34.906s15.672 34.906 35.004 34.906Z"/><path fill="#FFD200" d="M125.264 241.862a11.665 11.665 0 0 0-9.801-5.337H47.999c-4.698 0-8.963 2.74-10.915 7.013l-4.406 9.641s-3.247 9.622.001 12.496c25.526 22.58 71.589 24.223 99.996-1.643 3.331-4.439.49-8.503-2.127-13.065-4.398-7.771-1.99-4.178-1.99-4.178l-3.294-4.927Z"/><path fill="#000" d="M69.948 216.375h24.439v23.566a8.067 8.067 0 0 1-2.376 5.719 8.12 8.12 0 0 1-5.735 2.369h-8.234a8.121 8.121 0 0 1-5.735-2.369 8.077 8.077 0 0 1-2.375-5.719v-23.566h.016Z" opacity=".1"/><path fill="#FDA57D" d="M69.948 215.479h24.439v23.567a8.07 8.07 0 0 1-2.376 5.719 8.12 8.12 0 0 1-5.735 2.369h-8.234a8.126 8.126 0 0 1-5.735-2.369 8.077 8.077 0 0 1-2.375-5.719v-23.567h.016Z"/><path fill="#000" d="M69.998 218.985a35.235 35.235 0 0 0 24.422.066v-2.989H69.998v2.923Z" opacity=".1"/><path fill="#FDA57D" d="M82.243 220.62c19.331 0 35.003-15.628 35.003-34.906s-15.672-34.906-35.003-34.906c-19.332 0-35.004 15.628-35.004 34.906s15.672 34.906 35.004 34.906Z"/><path fill="#333" d="M48.786 172.453h66.746s-5.698-26.876-30.927-25.16c-25.23 1.716-35.819 25.16-35.819 25.16Z"/><path fill="#FDA57D" d="M47.971 190.312c1.797 0 3.253-2.724 3.253-6.085 0-3.36-1.456-6.084-3.253-6.084-1.796 0-3.252 2.724-3.252 6.084 0 3.361 1.456 6.085 3.252 6.085ZM116.339 190.312c1.797 0 3.253-2.724 3.253-6.085 0-3.36-1.456-6.084-3.253-6.084-1.796 0-3.252 2.724-3.252 6.084 0 3.361 1.456 6.085 3.252 6.085Z"/><path fill="#000" d="M48.786 173.356h66.746s-5.698-26.876-30.927-25.159c-25.23 1.716-35.819 25.159-35.819 25.159Z" opacity=".1"/><path fill="#EF5350" d="M194 84.18a83.969 83.969 0 0 1 10.935-41.459 84.261 84.261 0 0 1 29.996-30.707A84.56 84.56 0 0 1 276.205.028a84.574 84.574 0 0 1 41.839 9.845 84.293 84.293 0 0 1 31.546 29.122 83.988 83.988 0 0 1 13.067 40.84 83.954 83.954 0 0 1-8.804 41.96 84.227 84.227 0 0 1-28.39 32.19l-.051.374a28.889 28.889 0 0 1-9.57 6.138l-.111-.375c-3.952 3.406-20.59 8.794-39.703 8.743h-.419c-12.104 0-25.251-2.128-36.809-8.368 0 0-.103-.221-.256-.638a30.046 30.046 0 0 1-7.956-5.432c-.046-.323-.091-.641-.137-.953a84.131 84.131 0 0 1-26.804-30.16A83.859 83.859 0 0 1 194 84.18Z" opacity=".5"/><path fill="#FBD9D9" d="M278.383 165.818c45.209 0 81.857-36.547 81.857-81.63s-36.648-81.63-81.857-81.63c-45.208 0-81.857 36.547-81.857 81.63s36.649 81.63 81.857 81.63Z"/><path fill="#BE7C5E" d="M246.296 115.277s-19.506 1.592-14.342 37.022a28.037 28.037 0 0 0 9.28 5.891l10.969-37.022-5.907-5.891ZM309.576 115.277s19.506 1.592 14.342 37.022a28.037 28.037 0 0 1-9.28 5.891l-10.969-37.022 5.907-5.891Z"/><path fill="#333" d="M247.132 57.21s-1.503 4.36-3.628 9.365c-4.644 11.067.657 53.384 11.763 57.887 12.463 5.108 28.854 8.309 45.884 2.12 14.794-5.38 19.361-53.63 8.895-65.336a90.556 90.556 0 0 0-3.85-4.078l-59.064.043Z"/><path fill="#333" d="M278.444 90.88c20.042 0 36.289-16.203 36.289-36.189s-16.247-36.188-36.289-36.188-36.289 16.202-36.289 36.188 16.247 36.188 36.289 36.188Z"/><path fill="#000" d="M309.21 115.277h-63.29l-5.907 25.249s-3.466 11.688.853 16.83c4.32 5.141 44.629 16.83 74.268.851a32.838 32.838 0 0 0 .854-21.035c-3.415-11.782-.854-.852-.854-.852l-5.924-21.043Z" opacity=".1"/><path fill="#000" d="M310.046 115.277h-63.29l-5.907 25.249s-3.466 11.688.853 16.83c4.32 5.141 44.629 16.83 74.268.851a32.838 32.838 0 0 0 .854-21.035c-3.415-11.782-.854-.852-.854-.852l-5.924-21.043Z" opacity=".1"/><path fill="#EF5350" d="M309.576 115.277h-63.281l-5.907 25.249s-3.466 11.688.853 16.83c4.32 5.141 44.63 16.83 74.268.851a32.838 32.838 0 0 0 .854-21.035c-3.415-11.782-.854-.852-.854-.852l-5.933-21.043Z"/><path fill="#000" d="M265.698 94.335h25.32v24.432a8.372 8.372 0 0 1-2.463 5.929 8.42 8.42 0 0 1-5.946 2.456h-8.536a8.418 8.418 0 0 1-5.946-2.456 8.372 8.372 0 0 1-2.463-5.929V94.335h.034Z" opacity=".1"/><path fill="#BE7C5E" d="M265.698 93.399h25.32v24.432a8.373 8.373 0 0 1-2.463 5.929 8.424 8.424 0 0 1-5.946 2.456h-8.536a8.422 8.422 0 0 1-5.946-2.456 8.373 8.373 0 0 1-2.463-5.929V93.399h.034Z"/><path fill="#000" d="M265.759 97.034a36.53 36.53 0 0 0 25.319.068v-3.099h-25.319v3.03Z" opacity=".1"/><path fill="#BE7C5E" d="M278.444 98.728c20.042 0 36.289-16.202 36.289-36.188s-16.247-36.188-36.289-36.188-36.289 16.202-36.289 36.188 16.247 36.188 36.289 36.188Z"/><path fill="#333" d="M243.761 48.8h69.197s-5.907-27.862-32.063-26.083C254.739 24.496 243.761 48.8 243.761 48.8Z"/><path fill="#BE7C5E" d="M242.914 67.307c1.862 0 3.372-2.824 3.372-6.308s-1.51-6.308-3.372-6.308c-1.862 0-3.372 2.824-3.372 6.308s1.51 6.308 3.372 6.308ZM313.795 67.307c1.862 0 3.372-2.824 3.372-6.308s-1.51-6.308-3.372-6.308c-1.863 0-3.372 2.824-3.372 6.308s1.509 6.308 3.372 6.308Z"/><path fill="#000" d="M243.761 49.737h69.197s-5.907-27.863-32.063-26.084c-26.156 1.78-37.134 26.084-37.134 26.084Z" opacity=".1"/><g opacity=".5"><path fill="#EF5350" d="M202 270.934v-68.65h108.462s8.007-15.714 21.773-20.284c0 0-4.394 11.131.193 20.284h30.196v68.65H202Z" opacity=".7"/></g><path fill="#fff" stroke="#EF5350" stroke-width="4" d="M320.054 184.799c.095-.521.204-1.017.321-1.483-3.871 2.1-6.008 4.992-7.215 7.563a17.567 17.567 0 0 0-1.396 4.428 14.669 14.669 0 0 0-.171 1.342 8.577 8.577 0 0 0-.019.34c-.002.035-.002.059-.002.072l-.001.002v2H193V260h162v-60.937h-32.385l-.569-1.039c-2.656-4.849-2.639-9.679-1.992-13.225Z"/><path fill="#EF5350" fill-rule="evenodd" d="M274 216c-7.176 0-13 5.824-13 13s5.824 13 13 13 13-5.824 13-13-5.824-13-13-13Zm-1.3 22.1v-2.6h2.6v2.6h-2.6Zm4.121-8.879 1.17-1.196a4.137 4.137 0 0 0 1.209-2.925c0-2.873-2.327-5.2-5.2-5.2a5.199 5.199 0 0 0-5.2 5.2h2.6c0-1.43 1.17-2.6 2.6-2.6 1.43 0 2.6 1.17 2.6 2.6 0 .715-.286 1.365-.767 1.833l-1.612 1.638a5.233 5.233 0 0 0-1.521 3.679v.65h2.6c0-1.95.585-2.73 1.521-3.679Z" clip-rule="evenodd"/><path fill="#388E3C" d="M174.624 26v68.65H66.167s-8.008 15.715-21.779 20.284c0 0 4.395-11.13-.193-20.284H14V26h160.624Z" opacity=".5"/><path fill="#fff" stroke="#388E3C" stroke-width="4" d="M33.2 94.526H2V33h162v61.526H45.429V96.53l-.003.074a8.768 8.768 0 0 1-.02.344c-.023.311-.072.778-.171 1.357-.2 1.164-.6 2.761-1.398 4.477-1.21 2.599-3.348 5.518-7.218 7.636.12-.478.23-.986.328-1.521.646-3.573.663-8.438-1.99-13.324l-.567-1.046H33.2Z"/><path fill="#388E3C" fill-rule="evenodd" d="M71 64c0-6.624 5.376-12 12-12s12 5.376 12 12-5.376 12-12 12-12-5.376-12-12Zm3.6 0 6 6 10.8-10.8-1.692-1.704-9.108 9.108-4.308-4.296L74.6 64Z" clip-rule="evenodd"/></svg>